<mxfile host="Electron" agent="Mozilla/5.0 (Windows NT 10.0; Win64; x64) AppleWebKit/537.36 (KHTML, like Gecko) draw.io/27.0.9 Chrome/134.0.6998.205 Electron/35.4.0 Safari/537.36" version="27.0.9">
  <diagram name="Страница — 1" id="mLUwOCgV371YJMyzg6W5">
    <mxGraphModel dx="1042" dy="634" grid="0" gridSize="10" guides="1" tooltips="1" connect="1" arrows="1" fold="1" page="1" pageScale="1" pageWidth="827" pageHeight="1169" math="0" shadow="0">
      <root>
        <mxCell id="0" />
        <mxCell id="1" parent="0" />
        <mxCell id="6gOQ94XcbQKfDD-yp1Td-1" value="&lt;p style=&quot;margin:0px;margin-top:4px;text-align:center;&quot;&gt;&lt;i&gt;&amp;lt;&amp;lt;Interface&amp;gt;&amp;gt;&lt;/i&gt;&lt;br&gt;&lt;b&gt;Manager&lt;/b&gt;&lt;/p&gt;&lt;hr size=&quot;1&quot; style=&quot;border-style:solid;&quot;&gt;&lt;p style=&quot;margin:0px;margin-left:4px;&quot;&gt;&lt;br&gt;&lt;/p&gt;&lt;hr size=&quot;1&quot; style=&quot;border-style:solid;&quot;&gt;&lt;p style=&quot;margin:0px;margin-left:4px;&quot;&gt;&lt;span style=&quot;background-color: transparent; color: light-dark(rgb(0, 0, 0), rgb(255, 255, 255));&quot;&gt;# load(): void&lt;/span&gt;&lt;/p&gt;&lt;p style=&quot;margin:0px;margin-left:4px;&quot;&gt;+ save(): void&lt;/p&gt;&lt;p style=&quot;margin:0px;margin-left:4px;&quot;&gt;&lt;br&gt;&lt;/p&gt;" style="verticalAlign=top;align=left;overflow=fill;html=1;whiteSpace=wrap;" vertex="1" parent="1">
          <mxGeometry x="208" y="67" width="190" height="110" as="geometry" />
        </mxCell>
        <mxCell id="6gOQ94XcbQKfDD-yp1Td-2" value="AdManager" style="swimlane;fontStyle=1;align=center;verticalAlign=top;childLayout=stackLayout;horizontal=1;startSize=26;horizontalStack=0;resizeParent=1;resizeParentMax=0;resizeLast=0;collapsible=1;marginBottom=0;whiteSpace=wrap;html=1;" vertex="1" parent="1">
          <mxGeometry x="48" y="262" width="210" height="210" as="geometry" />
        </mxCell>
        <mxCell id="6gOQ94XcbQKfDD-yp1Td-3" value="+ ads_file: str&lt;div&gt;+ ads: list&lt;/div&gt;" style="text;strokeColor=none;fillColor=none;align=left;verticalAlign=top;spacingLeft=4;spacingRight=4;overflow=hidden;rotatable=0;points=[[0,0.5],[1,0.5]];portConstraint=eastwest;whiteSpace=wrap;html=1;" vertex="1" parent="6gOQ94XcbQKfDD-yp1Td-2">
          <mxGeometry y="26" width="210" height="44" as="geometry" />
        </mxCell>
        <mxCell id="6gOQ94XcbQKfDD-yp1Td-4" value="" style="line;strokeWidth=1;fillColor=none;align=left;verticalAlign=middle;spacingTop=-1;spacingLeft=3;spacingRight=3;rotatable=0;labelPosition=right;points=[];portConstraint=eastwest;strokeColor=inherit;" vertex="1" parent="6gOQ94XcbQKfDD-yp1Td-2">
          <mxGeometry y="70" width="210" height="8" as="geometry" />
        </mxCell>
        <mxCell id="6gOQ94XcbQKfDD-yp1Td-5" value="# load(str): void&lt;div&gt;+ save(): void&lt;div&gt;+ add_ad(str, dict): void&lt;/div&gt;&lt;div&gt;+ update_ad(str, dict): void&amp;nbsp;&lt;/div&gt;&lt;/div&gt;&lt;div&gt;+ delete_ad(str)&lt;/div&gt;&lt;div&gt;+ increment_popularity(str): void&lt;/div&gt;&lt;div&gt;+ get_user_ads(str): list&lt;/div&gt;&lt;div&gt;+ get_all_ads(): list&lt;/div&gt;" style="text;strokeColor=none;fillColor=none;align=left;verticalAlign=top;spacingLeft=4;spacingRight=4;overflow=hidden;rotatable=0;points=[[0,0.5],[1,0.5]];portConstraint=eastwest;whiteSpace=wrap;html=1;" vertex="1" parent="6gOQ94XcbQKfDD-yp1Td-2">
          <mxGeometry y="78" width="210" height="132" as="geometry" />
        </mxCell>
        <mxCell id="6gOQ94XcbQKfDD-yp1Td-10" value="UserManager" style="swimlane;fontStyle=1;align=center;verticalAlign=top;childLayout=stackLayout;horizontal=1;startSize=26;horizontalStack=0;resizeParent=1;resizeParentMax=0;resizeLast=0;collapsible=1;marginBottom=0;whiteSpace=wrap;html=1;" vertex="1" parent="1">
          <mxGeometry x="288" y="287" width="210" height="160" as="geometry">
            <mxRectangle x="415" y="224" width="110" height="30" as="alternateBounds" />
          </mxGeometry>
        </mxCell>
        <mxCell id="6gOQ94XcbQKfDD-yp1Td-11" value="+ user_file: str&lt;div&gt;+ users: list&lt;/div&gt;&lt;div&gt;+ current_user: str&lt;/div&gt;" style="text;strokeColor=none;fillColor=none;align=left;verticalAlign=top;spacingLeft=4;spacingRight=4;overflow=hidden;rotatable=0;points=[[0,0.5],[1,0.5]];portConstraint=eastwest;whiteSpace=wrap;html=1;" vertex="1" parent="6gOQ94XcbQKfDD-yp1Td-10">
          <mxGeometry y="26" width="210" height="54" as="geometry" />
        </mxCell>
        <mxCell id="6gOQ94XcbQKfDD-yp1Td-12" value="" style="line;strokeWidth=1;fillColor=none;align=left;verticalAlign=middle;spacingTop=-1;spacingLeft=3;spacingRight=3;rotatable=0;labelPosition=right;points=[];portConstraint=eastwest;strokeColor=inherit;" vertex="1" parent="6gOQ94XcbQKfDD-yp1Td-10">
          <mxGeometry y="80" width="210" height="8" as="geometry" />
        </mxCell>
        <mxCell id="6gOQ94XcbQKfDD-yp1Td-13" value="# load(str): void&lt;div&gt;+ save(): void&lt;div&gt;+ register_user(dict): bool&lt;/div&gt;&lt;/div&gt;&lt;div&gt;+ authenticate_user(str, str): bool&lt;/div&gt;" style="text;strokeColor=none;fillColor=none;align=left;verticalAlign=top;spacingLeft=4;spacingRight=4;overflow=hidden;rotatable=0;points=[[0,0.5],[1,0.5]];portConstraint=eastwest;whiteSpace=wrap;html=1;" vertex="1" parent="6gOQ94XcbQKfDD-yp1Td-10">
          <mxGeometry y="88" width="210" height="72" as="geometry" />
        </mxCell>
        <mxCell id="6gOQ94XcbQKfDD-yp1Td-15" style="edgeStyle=orthogonalEdgeStyle;rounded=0;orthogonalLoop=1;jettySize=auto;html=1;entryX=0.539;entryY=0.985;entryDx=0;entryDy=0;entryPerimeter=0;endArrow=block;endFill=0;" edge="1" parent="1" source="6gOQ94XcbQKfDD-yp1Td-2" target="6gOQ94XcbQKfDD-yp1Td-1">
          <mxGeometry relative="1" as="geometry">
            <Array as="points">
              <mxPoint x="148" y="227" />
              <mxPoint x="310" y="227" />
            </Array>
          </mxGeometry>
        </mxCell>
        <mxCell id="6gOQ94XcbQKfDD-yp1Td-18" style="edgeStyle=orthogonalEdgeStyle;rounded=0;orthogonalLoop=1;jettySize=auto;html=1;entryX=0.665;entryY=0.978;entryDx=0;entryDy=0;entryPerimeter=0;endArrow=block;endFill=0;" edge="1" parent="1" source="6gOQ94XcbQKfDD-yp1Td-10" target="6gOQ94XcbQKfDD-yp1Td-1">
          <mxGeometry relative="1" as="geometry" />
        </mxCell>
        <mxCell id="6gOQ94XcbQKfDD-yp1Td-19" value="DataManager" style="swimlane;fontStyle=1;align=center;verticalAlign=top;childLayout=stackLayout;horizontal=1;startSize=26;horizontalStack=0;resizeParent=1;resizeParentMax=0;resizeLast=0;collapsible=1;marginBottom=0;whiteSpace=wrap;html=1;" vertex="1" parent="1">
          <mxGeometry x="565" y="165" width="210" height="290" as="geometry" />
        </mxCell>
        <mxCell id="6gOQ94XcbQKfDD-yp1Td-20" value="- instance: DataManager&lt;div&gt;- user_manager: UserManager&lt;/div&gt;&lt;div&gt;- ad_manager: AdManager&lt;/div&gt;" style="text;strokeColor=none;fillColor=none;align=left;verticalAlign=top;spacingLeft=4;spacingRight=4;overflow=hidden;rotatable=0;points=[[0,0.5],[1,0.5]];portConstraint=eastwest;whiteSpace=wrap;html=1;" vertex="1" parent="6gOQ94XcbQKfDD-yp1Td-19">
          <mxGeometry y="26" width="210" height="54" as="geometry" />
        </mxCell>
        <mxCell id="6gOQ94XcbQKfDD-yp1Td-21" value="" style="line;strokeWidth=1;fillColor=none;align=left;verticalAlign=middle;spacingTop=-1;spacingLeft=3;spacingRight=3;rotatable=0;labelPosition=right;points=[];portConstraint=eastwest;strokeColor=inherit;" vertex="1" parent="6gOQ94XcbQKfDD-yp1Td-19">
          <mxGeometry y="80" width="210" height="8" as="geometry" />
        </mxCell>
        <mxCell id="6gOQ94XcbQKfDD-yp1Td-22" value="# load(str): void&lt;div&gt;+ save(): void&lt;/div&gt;&lt;div&gt;+ users(): list&lt;/div&gt;&lt;div&gt;+ ads(): list&lt;/div&gt;&lt;div&gt;+ current_user(): str&lt;br&gt;&lt;div&gt;+ add_ad(str, dict): void&lt;/div&gt;&lt;div&gt;+ update_ad(str, dict): void&amp;nbsp;&lt;/div&gt;&lt;/div&gt;&lt;div&gt;+ delete_ad(str)&lt;/div&gt;&lt;div&gt;+ increment_popularity(str): void&lt;/div&gt;&lt;div&gt;+ get_user_ads(str): list&lt;/div&gt;&lt;div&gt;+ get_all_ads(): list&lt;/div&gt;&lt;div&gt;&lt;div&gt;+ register_user(dict): bool&lt;/div&gt;&lt;div&gt;+ authenticate_user(str, str): bool&lt;/div&gt;&lt;/div&gt;" style="text;strokeColor=none;fillColor=none;align=left;verticalAlign=top;spacingLeft=4;spacingRight=4;overflow=hidden;rotatable=0;points=[[0,0.5],[1,0.5]];portConstraint=eastwest;whiteSpace=wrap;html=1;" vertex="1" parent="6gOQ94XcbQKfDD-yp1Td-19">
          <mxGeometry y="88" width="210" height="202" as="geometry" />
        </mxCell>
        <mxCell id="6gOQ94XcbQKfDD-yp1Td-25" value="" style="endArrow=open;html=1;endSize=12;startArrow=diamondThin;startSize=14;startFill=1;edgeStyle=orthogonalEdgeStyle;align=left;verticalAlign=bottom;rounded=0;exitX=0.412;exitY=1.009;exitDx=0;exitDy=0;exitPerimeter=0;entryX=0.52;entryY=1.036;entryDx=0;entryDy=0;entryPerimeter=0;" edge="1" parent="1" source="6gOQ94XcbQKfDD-yp1Td-22" target="6gOQ94XcbQKfDD-yp1Td-13">
          <mxGeometry x="-1" y="15" relative="1" as="geometry">
            <mxPoint x="350" y="313" as="sourcePoint" />
            <mxPoint x="510" y="313" as="targetPoint" />
            <Array as="points">
              <mxPoint x="652" y="484" />
              <mxPoint x="397" y="484" />
            </Array>
            <mxPoint x="-5" y="-11" as="offset" />
          </mxGeometry>
        </mxCell>
        <mxCell id="6gOQ94XcbQKfDD-yp1Td-26" value="" style="endArrow=open;html=1;endSize=12;startArrow=diamondThin;startSize=14;startFill=1;edgeStyle=orthogonalEdgeStyle;align=left;verticalAlign=bottom;rounded=0;exitX=0.595;exitY=1.017;exitDx=0;exitDy=0;exitPerimeter=0;entryX=0.495;entryY=1.038;entryDx=0;entryDy=0;entryPerimeter=0;" edge="1" parent="1" source="6gOQ94XcbQKfDD-yp1Td-22" target="6gOQ94XcbQKfDD-yp1Td-5">
          <mxGeometry x="-1" y="3" relative="1" as="geometry">
            <mxPoint x="350" y="313" as="sourcePoint" />
            <mxPoint x="510" y="313" as="targetPoint" />
            <Array as="points">
              <mxPoint x="690" y="502" />
              <mxPoint x="152" y="502" />
            </Array>
          </mxGeometry>
        </mxCell>
      </root>
    </mxGraphModel>
  </diagram>
</mxfile>
